name C:/MyDriveSym/Projects/mobilecap/Data\Session20210827_0002\mocap\ForceDataProcessed\walkingTS2_forces.mot
datacolumns 19
datarows 19
range 0.37200000 0.38100000
endheader 
time	R_ground_force_vx	R_ground_force_vy	R_ground_force_vz	R_ground_force_px	R_ground_force_py	R_ground_force_pz	R_ground_torque_x	R_ground_torque_y	R_ground_torque_z	L_ground_force_vx	L_ground_force_vy	L_ground_force_vz	L_ground_force_px	L_ground_force_py	L_ground_force_pz	L_ground_torque_x	L_ground_torque_y	L_ground_torque_z	
          0.37200000	          0.62652300	        555.29979300	        -16.04120300	          0.28513700	          0.00600000	         -0.12953200	          0.00000000	         -2.43656200	          0.00000000	          0.00000000	          0.00000000	          0.00000000	          0.72580600	          0.00000000	         -0.20870300	          0.00000000	          0.00000000	          0.00000000	
          0.37250000	          0.83686400	        555.48149900	        -16.05981800	          0.28521700	          0.00600000	         -0.12955600	          0.00000000	         -2.44779600	          0.00000000	          0.00000000	          0.00000000	          0.00000000	          0.72580600	          0.00000000	         -0.20870300	          0.00000000	          0.00000000	          0.00000000	
          0.37300000	          1.04747500	        555.66414200	        -16.07858300	          0.28529700	          0.00600000	         -0.12957900	          0.00000000	         -2.45902400	          0.00000000	          0.00000000	          0.00000000	          0.00000000	          0.72580600	          0.00000000	         -0.20870300	          0.00000000	          0.00000000	          0.00000000	
          0.37350000	          1.25835700	        555.84772300	        -16.09749900	          0.28537700	          0.00600000	         -0.12960300	          0.00000000	         -2.47024700	          0.00000000	          0.00000000	          0.00000000	          0.00000000	          0.72580600	          0.00000000	         -0.20870300	          0.00000000	          0.00000000	          0.00000000	
          0.37400000	          1.46950800	        556.03224400	        -16.11656600	          0.28545800	          0.00600000	         -0.12962600	          0.00000000	         -2.48146400	          0.00000000	          0.00000000	          0.00000000	          0.00000000	          0.72580600	          0.00000000	         -0.20870300	          0.00000000	          0.00000000	          0.00000000	
          0.37450000	          1.68093000	        556.21770500	        -16.13578600	          0.28553800	          0.00600000	         -0.12965000	          0.00000000	         -2.49267600	          0.00000000	          0.00000000	          0.00000000	          0.00000000	          0.72580600	          0.00000000	         -0.20870300	          0.00000000	          0.00000000	          0.00000000	
          0.37500000	          1.89262200	        556.40410900	        -16.15515700	          0.28561800	          0.00600000	         -0.12967500	          0.00000000	         -2.50388100	          0.00000000	          0.00000000	          0.00000000	          0.00000000	          0.72580600	          0.00000000	         -0.20870300	          0.00000000	          0.00000000	          0.00000000	
          0.37550000	          2.10458500	        556.59145600	        -16.17468100	          0.28569900	          0.00600000	         -0.12969900	          0.00000000	         -2.51508100	          0.00000000	          0.00000000	          0.00000000	          0.00000000	          0.72580600	          0.00000000	         -0.20870300	          0.00000000	          0.00000000	          0.00000000	
          0.37600000	          2.31681900	        556.77974700	        -16.19435800	          0.28578000	          0.00600000	         -0.12972300	          0.00000000	         -2.52627500	          0.00000000	          0.00000000	          0.00000000	          0.00000000	          0.72580600	          0.00000000	         -0.20870300	          0.00000000	          0.00000000	          0.00000000	
          0.37650000	          2.52932400	        556.96898300	        -16.21418900	          0.28586100	          0.00600000	         -0.12974800	          0.00000000	         -2.53746300	          0.00000000	          0.00000000	          0.00000000	          0.00000000	          0.72580600	          0.00000000	         -0.20870300	          0.00000000	          0.00000000	          0.00000000	
          0.37700000	          2.74210100	        557.15916500	        -16.23417300	          0.28594200	          0.00600000	         -0.12977300	          0.00000000	         -2.54864300	          0.00000000	          0.00000000	          0.00000000	          0.00000000	          0.72580600	          0.00000000	         -0.20870300	          0.00000000	          0.00000000	          0.00000000	
          0.37750000	          2.95514800	        557.35029200	        -16.25431100	          0.28602300	          0.00600000	         -0.12979800	          0.00000000	         -2.55981800	          0.00000000	          0.00000000	          0.00000000	          0.00000000	          0.72580600	          0.00000000	         -0.20870300	          0.00000000	          0.00000000	          0.00000000	
          0.37800000	          3.16846800	        557.54236700	        -16.27460400	          0.28610400	          0.00600000	         -0.12982300	          0.00000000	         -2.57098500	          0.00000000	          0.00000000	          0.00000000	          0.00000000	          0.72580600	          0.00000000	         -0.20870300	          0.00000000	          0.00000000	          0.00000000	
          0.37850000	          3.38206000	        557.73538800	        -16.29505100	          0.28618500	          0.00600000	         -0.12984900	          0.00000000	         -2.58214500	          0.00000000	          0.00000000	          0.00000000	          0.00000000	          0.72580600	          0.00000000	         -0.20870300	          0.00000000	          0.00000000	          0.00000000	
          0.37900000	          3.59592500	        557.92935700	        -16.31565400	          0.28626700	          0.00600000	         -0.12987500	          0.00000000	         -2.59329800	          0.00000000	          0.00000000	          0.00000000	          0.00000000	          0.72580600	          0.00000000	         -0.20870300	          0.00000000	          0.00000000	          0.00000000	
          0.37950000	          3.81006200	        558.12427200	        -16.33641200	          0.28634900	          0.00600000	         -0.12990000	          0.00000000	         -2.60444400	          0.00000000	          0.00000000	          0.00000000	          0.00000000	          0.72580600	          0.00000000	         -0.20870300	          0.00000000	          0.00000000	          0.00000000	
          0.38000000	          4.02447300	        558.32013500	        -16.35732600	          0.28643000	          0.00600000	         -0.12992600	          0.00000000	         -2.61558200	          0.00000000	          0.00000000	          0.00000000	          0.00000000	          0.72580600	          0.00000000	         -0.20870300	          0.00000000	          0.00000000	          0.00000000	
          0.38050000	          4.23915800	        558.51694400	        -16.37839600	          0.28651200	          0.00600000	         -0.12995300	          0.00000000	         -2.62671200	          0.00000000	          0.00000000	          0.00000000	          0.00000000	          0.72580600	          0.00000000	         -0.20870300	          0.00000000	          0.00000000	          0.00000000	
          0.38100000	          4.45411600	        558.71470000	        -16.39962200	          0.28659400	          0.00600000	         -0.12997900	          0.00000000	         -2.63783400	          0.00000000	          0.00000000	          0.00000000	          0.00000000	          0.72580600	          0.00000000	         -0.20870300	          0.00000000	          0.00000000	          0.00000000	
